<?xml version="1.0" encoding="UTF-8" standalone="no"?>
<svg id="ajm-blog" xmlns:rdf="http://www.w3.org/1999/02/22-rdf-syntax-ns#" xmlns="http://www.w3.org/2000/svg" height="1e3" width="1100" version="1.0" xmlns:cc="http://creativecommons.org/ns#" xmlns:dc="http://purl.org/dc/elements/1.1/">
 <g fill="#E70">
  <path d="m76.438 354.65a25.002 25.002 0 0 0 -25.098 29.46l83.48 500.89h341.18a25.002 25.002 0 1 0 0 -50h-298.82l-76.52-459.11a25.002 25.002 0 0 0 -24.222 -21.24z"/>
  <path d="m350 50a110 110 0 0 0 -110 110 110 110 0 0 0 110 110 110 110 0 0 0 110 -110 110 110 0 0 0 -110 -110zm-58.11 231.64c-25.53-0.19-51.31 10.28-70.35 36.81-30.45 42.46-47.29 103.71-62.38 162.89-12.36 49.74-9.17 210.33 30.83 270.33s96.68 70.01 156.69 70 116.14-0.02 153.32-1.67c29.93-0.63 104.03 193.9 162.02 146.93 57.98-46.93-42.06-222.7-58.05-253.23s-72.91-41.15-107.72-47.65c-37.61-3.78-17.93-6.74-20.19-54.89-1.53-32.63-23.07-69.37-41.94-102.27l34.6 33.46a45.004 45.004 0 0 0 33.78 12.58l178.98-9.94 20.52 22.01 1.64-28.41a45.004 45.004 0 0 0 -24.99 -83.56l-30.68-98.62-23.94 7.18 28.88 92.85-135.77 7.54-159.37-154.12c-0.99-1-2.01-1.99-3.06-2.95l-5.43-5.26a45.004 45.004 0 0 0 -12.12 -8.54c-0.37-0.26-0.72-0.52-1.09-0.78-13.63-6.62-28.86-10.58-44.18-10.69z"/>
  <path d="m500 607.5a12.501 12.501 0 1 0 0 25h540a12.501 12.501 0 1 0 0 -25h-540z"/>
  <path d="m560 567.5a12.501 12.501 0 1 0 0 25h260a12.501 12.501 0 1 0 0 -25h-260z"/>
  <path d="m906.54 69.023a130 130 0 0 1 11.46 52.977 130 130 0 0 1 -130 130 130 130 0 0 1 -3.37 -0.17 110 110 0 0 0 63.37 20.17 110 110 0 0 0 110 -110 110 110 0 0 0 -51.46 -92.977z"/>
 </g>
</svg>
